<?xml version="1.0" standalone="no"?>
<!DOCTYPE svg PUBLIC "-//W3C//DTD SVG 20010904//EN"
 "http://www.w3.org/TR/2001/REC-SVG-20010904/DTD/svg10.dtd">
<svg version="1.0" xmlns="http://www.w3.org/2000/svg"
 width="512.000000pt" height="512.000000pt" viewBox="0 0 512.000000 512.000000"
 preserveAspectRatio="xMidYMid meet">
<metadata>
Created by potrace 1.11, written by Peter Selinger 2001-2013
</metadata>
<g transform="translate(0.000000,512.000000) scale(0.100000,-0.100000)"
fill="#000000" stroke="none">
<path d="M4930 5114 c-499 -57 -873 -146 -1275 -305 -154 -61 -439 -204 -575
-289 -237 -149 -476 -348 -644 -536 -49 -54 -93 -103 -97 -108 -5 -6 -44 7
-96 32 -116 55 -187 73 -309 79 -175 9 -337 -46 -486 -166 -254 -204 -451
-607 -483 -988 -9 -96 3 -136 46 -158 50 -27 84 -18 148 38 109 94 241 146
394 155 84 4 100 3 117 -13 11 -10 20 -24 20 -31 0 -7 -20 -64 -43 -126 -62
-159 -119 -355 -121 -408 0 -25 3 -63 7 -86 l8 -40 -43 -20 c-64 -29 -186
-123 -245 -189 -123 -138 -225 -416 -273 -746 -23 -154 -21 -186 13 -217 34
-30 58 -34 154 -22 342 42 665 155 808 282 66 60 160 182 189 246 l20 43 40
-8 c23 -4 61 -7 86 -7 53 2 249 59 408 121 62 23 119 43 126 43 7 0 21 -9 31
-20 16 -17 17 -33 13 -117 -9 -153 -61 -285 -155 -394 -56 -64 -65 -98 -38
-148 22 -43 62 -55 158 -46 381 32 784 230 988 483 120 149 175 311 166 486
-6 122 -24 193 -79 309 -25 52 -38 91 -32 96 5 4 54 48 108 97 519 464 893
1178 1060 2025 41 205 66 398 69 515 2 78 0 85 -25 110 -27 28 -79 37 -158 28z
m-26 -236 c-22 -171 -50 -341 -74 -451 -28 -127 -90 -367 -97 -377 -4 -4 -683
671 -683 680 0 7 255 74 396 105 93 20 291 52 419 68 17 2 33 5 37 6 4 0 5
-14 2 -31z m-660 -637 l419 -419 -33 -84 c-48 -120 -151 -335 -211 -441 -305
-536 -774 -967 -1414 -1299 l-130 -67 -472 471 -471 471 50 101 c186 371 425
704 708 986 228 228 499 416 817 567 124 59 291 131 308 132 6 1 199 -188 429
-418z m-2224 -467 c35 -8 90 -26 122 -41 l58 -26 -31 -41 c-111 -147 -270
-406 -345 -558 l-38 -77 -30 16 c-21 11 -67 18 -142 21 -128 5 -238 -13 -349
-58 -38 -15 -71 -27 -73 -25 -1 1 9 42 23 91 36 125 96 255 164 360 181 279
400 395 641 338z m240 -1519 c222 -222 402 -406 400 -408 -8 -6 -212 -75 -286
-97 -132 -37 -106 -53 -391 233 -234 233 -253 255 -253 287 0 46 106 390 120
390 3 0 187 -182 410 -405z m1516 -244 c52 -232 -66 -454 -334 -629 -124 -81
-289 -151 -433 -186 l-27 -6 28 73 c45 115 63 222 58 350 -3 78 -9 121 -20
143 l-17 30 77 38 c153 75 424 243 557 345 l40 30 27 -57 c15 -31 35 -90 44
-131z m-1939 -173 c90 -90 163 -169 163 -176 0 -26 -62 -130 -115 -195 -65
-78 -151 -136 -270 -182 -145 -55 -415 -118 -432 -102 -16 17 47 287 102 432
46 119 104 205 182 270 66 54 167 114 193 115 8 0 88 -73 177 -162z"/>
<path d="M3458 4081 c-210 -67 -348 -257 -348 -477 0 -271 223 -494 494 -494
279 0 496 216 496 494 0 142 -45 253 -144 352 -100 100 -210 144 -355 143 -54
0 -107 -7 -143 -18z m257 -197 c43 -16 106 -66 133 -107 64 -93 72 -202 22
-303 -34 -69 -80 -112 -156 -145 -39 -18 -61 -21 -123 -17 -116 7 -200 60
-253 161 -31 57 -33 203 -4 257 51 95 131 155 224 169 46 7 118 0 157 -15z"/>
<path d="M2993 3124 c-43 -22 -181 -167 -189 -199 -18 -73 48 -139 121 -121
34 9 179 148 200 192 41 87 -46 172 -132 128z"/>
<path d="M2546 2679 c-36 -43 -35 -91 3 -130 39 -38 87 -39 130 -3 42 35 44
98 5 138 -40 39 -103 37 -138 -5z"/>
<path d="M708 2262 c-157 -157 -168 -171 -168 -205 0 -21 7 -49 16 -62 19 -28
74 -49 106 -40 36 11 336 314 349 352 21 63 -29 123 -103 123 -28 0 -54 -22
-200 -168z"/>
<path d="M371 1355 c-363 -362 -366 -365 -366 -406 0 -34 6 -46 33 -70 41 -37
78 -37 128 0 21 16 188 179 370 362 221 223 333 342 335 359 11 69 -29 120
-95 120 -40 0 -45 -4 -405 -365z"/>
<path d="M2295 1006 c-38 -17 -330 -313 -340 -344 -9 -32 12 -87 40 -106 13
-9 41 -16 62 -16 34 0 48 11 205 168 146 146 168 172 168 200 0 46 -19 79 -55
97 -39 18 -42 18 -80 1z"/>
<path d="M800 872 c-17 -3 -131 -109 -359 -335 -183 -183 -346 -350 -362 -371
-37 -50 -37 -87 0 -128 24 -27 36 -33 70 -33 41 0 44 3 406 366 361 360 365
365 365 405 0 65 -51 106 -120 96z"/>
<path d="M1600 872 c-17 -3 -131 -109 -359 -335 -183 -183 -346 -350 -362
-371 -37 -50 -37 -87 0 -128 24 -27 36 -33 70 -33 41 0 44 3 406 366 361 360
365 365 365 405 0 65 -51 106 -120 96z"/>
</g>
</svg>
